<?xml version="1.0" encoding="UTF-8" standalone="no"?>
<!-- Created with Inkscape (http://www.inkscape.org/) -->

<svg
   width="16.968258mm"
   height="10.58333mm"
   viewBox="0 0 16.968258 10.58333"
   version="1.1"
   id="svg1"
   xml:space="preserve"
   inkscape:version="1.4.2 (ebf0e940, 2025-05-08)"
   sodipodi:docname="rai_logo.svg"
   xmlns:inkscape="http://www.inkscape.org/namespaces/inkscape"
   xmlns:sodipodi="http://sodipodi.sourceforge.net/DTD/sodipodi-0.dtd"
   xmlns="http://www.w3.org/2000/svg"
   xmlns:svg="http://www.w3.org/2000/svg"><sodipodi:namedview
     id="namedview1"
     pagecolor="#ffffff"
     bordercolor="#000000"
     borderopacity="0.25"
     inkscape:showpageshadow="2"
     inkscape:pageopacity="0.0"
     inkscape:pagecheckerboard="0"
     inkscape:deskcolor="#d1d1d1"
     inkscape:document-units="mm"
     inkscape:zoom="0.82240869"
     inkscape:cx="41.341976"
     inkscape:cy="31.006482"
     inkscape:window-width="896"
     inkscape:window-height="632"
     inkscape:window-x="0"
     inkscape:window-y="30"
     inkscape:window-maximized="0"
     inkscape:current-layer="layer1" /><defs
     id="defs1" /><g
     inkscape:label="Layer 1"
     inkscape:groupmode="layer"
     id="layer1"
     transform="translate(-61.783348,-134.42779)"><path
       fill-rule="evenodd"
       clip-rule="evenodd"
       d="m 61.783348,145.01112 v -5.60705 a 2.4532166,2.4532166 0 0 1 2.453217,-2.45348 h 2.032529 v 1.54199 h -2.032529 a 0.91122499,0.91122499 0 0 0 -0.911225,0.91123 v 5.60705 h -1.541992 z m 7.222331,-1.54199 h 3.122877 v -2.64054 l -3.345921,0.84614 c -1.040341,0.26299 -0.849841,1.7944 0.223309,1.7944 z m -1.75551,-6.51854 h 4.459023 a 1.9610916,1.9610916 0 0 1 1.961091,1.94151 v 6.11876 h -4.664604 c -2.888985,0 -3.402012,-4.12327 -0.601133,-4.83129 l 3.407569,-0.86175 a 0.41909999,0.41909999 0 0 0 -0.102923,-0.82524 h -4.459023 v -1.54172 z m 8.943445,0 h -1.68222 v 1.54199 h 1.68222 a 0.91122499,0.91122499 0 0 1 0.910961,0.91123 v 5.60705 h 1.541992 v -5.60679 a 2.4532166,2.4532166 0 0 0 -2.452953,-2.45321 z m 2.557992,-0.771 h -1.752071 v -1.7518 h 1.752071 v 1.75207 z"
       fill="#6c48fc"
       id="path1"
       style="stroke-width:0.264583" /></g></svg>
